<svg width="18" height="16" xmlns="http://www.w3.org/2000/svg" xmlns:xlink="http://www.w3.org/1999/xlink" xml:space="preserve" overflow="hidden"><g transform="translate(-470 -368)"><g><g><g><g><path d="M0 4C-4.44089e-16 2.89543 0.895431 2 2 2L14 2C15.1046 2 16 2.89543 16 4L16 12C16 13.1046 15.1046 14 14 14L2 14C0.895431 14 0 13.1046 0 12ZM9 5.5C9 5.77614 9.22386 6 9.5 6L13.5 6C13.7761 6 14 5.77614 14 5.5 14 5.22386 13.7761 5 13.5 5L9.5 5C9.22386 5 9 5.22386 9 5.5M9 8C9 8.27614 9.22386 8.5 9.5 8.5L13.5 8.5C13.7761 8.5 14 8.27614 14 8 14 7.72386 13.7761 7.5 13.5 7.5L9.5 7.5C9.22386 7.5 9 7.72386 9 8M10 10.5C10 10.7761 10.2239 11 10.5 11L13.5 11C13.7761 11 14 10.7761 14 10.5 14 10.2239 13.7761 10 13.5 10L10.5 10C10.2239 10 10 10.2239 10 10.5M9 12.5C9 10.567 7.21 9 5 9 2.914 9 1.2 10.398 1.016 12.181 1.10336 12.6557 1.51733 13.0002 2 13L8.96 13C8.98667 12.8367 9 12.67 9 12.5M7 6C7 4.89543 6.10457 4 5 4 3.89543 4 3 4.89543 3 6 3 7.10457 3.89543 8 5 8 6.10457 8 7 7.10457 7 6" fill="#7C7C7C" fill-rule="nonzero" fill-opacity="1" transform="matrix(-1 0 0 1 487 368)"/></g></g></g></g></g></svg>