<svg width="18" height="16" xmlns="http://www.w3.org/2000/svg" xmlns:xlink="http://www.w3.org/1999/xlink" xml:space="preserve" overflow="hidden"><g transform="translate(-502 -384)"><g><g><g><g><path d="M503 388C503 386.895 503.895 386 505 386L517 386C518.105 386 519 386.895 519 388L519 396C519 397.105 518.105 398 517 398L505 398C503.895 398 503 397.105 503 396ZM512 389.5C512 389.776 512.224 390 512.5 390L516.5 390C516.776 390 517 389.776 517 389.5 517 389.224 516.776 389 516.5 389L512.5 389C512.224 389 512 389.224 512 389.5M512 392C512 392.276 512.224 392.5 512.5 392.5L516.5 392.5C516.776 392.5 517 392.276 517 392 517 391.724 516.776 391.5 516.5 391.5L512.5 391.5C512.224 391.5 512 391.724 512 392M513 394.5C513 394.776 513.224 395 513.5 395L516.5 395C516.776 395 517 394.776 517 394.5 517 394.224 516.776 394 516.5 394L513.5 394C513.224 394 513 394.224 513 394.5M512 396.5C512 394.567 510.21 393 508 393 505.914 393 504.2 394.398 504.016 396.181 504.103 396.656 504.517 397 505 397L511.96 397C511.987 396.837 512 396.67 512 396.5M510 390C510 388.895 509.105 388 508 388 506.895 388 506 388.895 506 390 506 391.105 506.895 392 508 392 509.105 392 510 391.105 510 390" fill="#0070C0" fill-rule="nonzero" fill-opacity="1"/></g></g></g></g></g></svg>